<?xml version="1.0" encoding="UTF-8" standalone="no"?>
<svg width="568px" height="69px" viewBox="0 0 568 69" version="1.1" xmlns="http://www.w3.org/2000/svg" xmlns:xlink="http://www.w3.org/1999/xlink" xmlns:sketch="http://www.bohemiancoding.com/sketch/ns">
    <!-- Generator: Sketch 3.5.2 (25235) - http://www.bohemiancoding.com/sketch -->
    <title>Museum Logo</title>
    <desc>Created with Sketch.</desc>
    <defs></defs>
    <g id="Page-1" stroke="none" stroke-width="1" fill="none" fill-rule="evenodd" sketch:type="MSPage">
        <g id="Museum-Logo" sketch:type="MSLayerGroup" fill="#1A1918">
            <path d="M274.757,1.458 L274.757,20.001 C274.757,24.353 272.201,27.952 264.259,27.952 C256.316,27.952 253.761,24.353 253.761,20.001 L253.761,1.458 L258.009,1.458 L258.009,19.661 C258.009,22.556 259.564,24.202 264.259,24.202 C268.96,24.202 270.505,22.556 270.505,19.661 L270.505,1.458 L274.757,1.458" id="Fill-1" sketch:type="MSShapeGroup"></path>
            <path d="M291.949,27.952 C289.248,27.952 285.55,27.399 283,26.399 L283.599,23.048 C286.349,23.853 289.451,24.304 291.996,24.304 C296.345,24.304 297.199,23.552 297.199,20.808 C297.199,17.808 297.199,17.653 291.251,16.106 C283.652,14.105 283.302,12.802 283.302,7.903 C283.302,2.659 285.701,0.958 292.896,0.958 C295.097,0.958 298.447,1.31 300.843,1.913 L300.494,5.401 C298.244,4.958 294.996,4.612 292.949,4.612 C288.197,4.612 287.55,5.06 287.55,8.06 C287.55,10.958 287.597,11.105 293.394,12.706 C301.042,14.759 301.445,15.753 301.445,20.702 C301.445,25.556 299.996,27.952 291.949,27.952" id="Fill-2" sketch:type="MSShapeGroup"></path>
            <path d="M309.689,1.458 L326.937,1.458 L326.515,5.161 L313.937,5.161 L313.937,12.462 L323.16,12.462 L323.16,16.157 L313.937,16.157 L313.937,23.753 L326.988,23.753 L326.988,27.458 L309.689,27.458 L309.689,1.458" id="Fill-3" sketch:type="MSShapeGroup"></path>
            <path d="M355.974,1.458 L355.974,20.001 C355.974,24.353 353.429,27.952 345.478,27.952 C337.533,27.952 334.98,24.353 334.98,20.001 L334.98,1.458 L339.232,1.458 L339.232,19.661 C339.232,22.556 340.783,24.202 345.478,24.202 C350.181,24.202 351.726,22.556 351.726,19.661 L351.726,1.458 L355.974,1.458" id="Fill-4" sketch:type="MSShapeGroup"></path>
            <path d="M11.047,57.981 L16.742,57.981 L13.869,47.552 L11.047,57.981 L11.047,57.981 Z M18.406,63.78 L9.383,63.78 L8.275,67.706 L0.971,67.706 L9.281,41.501 L18.455,41.501 L26.826,67.706 L19.518,67.706 L18.406,63.78 L18.406,63.78 Z" id="Fill-5" sketch:type="MSShapeGroup"></path>
            <path d="M43.91,47.497 L39.076,47.497 L39.076,54.858 L43.91,54.858 C45.777,54.858 46.486,54.103 46.486,52.589 L46.486,49.665 C46.486,48.204 45.777,47.497 43.91,47.497 L43.91,47.497 Z M43.412,60.706 L39.076,60.706 L39.076,67.706 L31.619,67.706 L31.619,41.501 L44.113,41.501 C51.424,41.501 53.742,44.327 53.742,49.315 L53.742,52.845 C53.742,55.868 52.883,57.534 50.617,59.146 L56.365,67.706 L48.049,67.706 L43.412,60.706 L43.412,60.706 Z" id="Fill-6" sketch:type="MSShapeGroup"></path>
            <path d="M72.559,67.706 L65.104,67.706 L65.104,47.95 L58.115,47.95 L58.115,41.501 L79.529,41.501 L79.529,47.95 L72.559,47.95 L72.559,67.706" id="Fill-7" sketch:type="MSShapeGroup"></path>
            <path d="M391.525,1.71 L386.474,1.71 L378.677,23.267 L370.878,1.71 L365.833,1.71 L363.921,27.7 L368.07,27.7 L369.478,7.911 L376.585,27.7 L380.816,27.7 L387.875,7.911 L389.289,27.7 L393.433,27.7 L391.525,1.71" id="Fill-8" sketch:type="MSShapeGroup"></path>
            <path d="M243.917,1.71 L238.869,1.71 L231.07,23.267 L223.268,1.71 L218.223,1.71 L216.313,27.7 L220.461,27.7 L221.869,7.911 L228.974,27.7 L233.207,27.7 L240.269,7.911 L241.679,27.7 L245.826,27.7 L243.917,1.71" id="Fill-9" sketch:type="MSShapeGroup"></path>
            <path d="M10.85,24.472 C12.865,24.472 15.994,24.224 18.258,23.819 L18.613,27.396 C15.838,28.005 13.115,28.208 10.795,28.208 C3.338,28.208 0.611,25.585 0.611,20.241 L0.611,8.95 C0.611,3.606 3.338,0.985 10.795,0.985 C13.115,0.985 15.838,1.187 18.613,1.79 L18.258,5.368 C15.994,4.966 12.865,4.714 10.85,4.714 C6.564,4.714 4.9,5.722 4.9,9.249 L4.9,19.937 C4.9,23.468 6.564,24.472 10.85,24.472" id="Fill-10" sketch:type="MSShapeGroup"></path>
            <path d="M36.742,4.665 L32.006,18.374 L41.479,18.374 L36.742,4.665 L36.742,4.665 Z M49.092,27.7 L44.807,27.7 L42.588,21.853 L30.846,21.853 L28.676,27.7 L24.389,27.7 L34.121,1.487 L39.363,1.487 L49.092,27.7 L49.092,27.7 Z" id="Fill-11" sketch:type="MSShapeGroup"></path>
            <path d="M58.945,15.401 L66.654,15.401 C69.633,15.401 70.334,14.396 70.334,12.024 L70.334,8.595 C70.334,6.224 69.633,5.218 66.654,5.218 L58.945,5.218 L58.945,15.401 L58.945,15.401 Z M66.15,19.032 L58.945,19.032 L58.945,27.7 L54.658,27.7 L54.658,1.487 L66.406,1.487 C72.754,1.487 74.621,4.058 74.621,8.196 L74.621,12.325 C74.621,15.349 73.611,17.517 70.639,18.474 L76.84,27.7 L72,27.7 L66.15,19.032 L66.15,19.032 Z" id="Fill-12" sketch:type="MSShapeGroup"></path>
            <path d="M88.469,6.681 L88.469,27.7 L84.387,27.7 L84.387,1.487 L89.777,1.487 L102.078,22.509 L102.078,1.487 L106.162,1.487 L106.162,27.7 L100.771,27.7 L88.469,6.681" id="Fill-13" sketch:type="MSShapeGroup"></path>
            <path d="M115.24,1.487 L132.629,1.487 L131.615,5.218 L119.521,5.218 L119.521,12.577 L128.551,12.577 L128.551,16.306 L119.521,16.306 L119.521,23.974 L132.676,23.974 L132.676,27.7 L115.24,27.7 L115.24,1.487" id="Fill-14" sketch:type="MSShapeGroup"></path>
            <path d="M155.01,15.501 L155.01,23.974 C153.449,24.274 151.633,24.472 149.621,24.472 C144.982,24.472 143.916,23.112 143.916,19.892 L143.916,9.353 C143.916,5.722 145.287,4.765 149.818,4.765 C152.141,4.765 155.166,4.966 157.939,5.419 L158.342,1.79 C155.822,1.235 152.85,0.985 150.119,0.985 C142.51,0.985 139.641,3.306 139.641,8.897 L139.641,20.341 C139.641,25.483 142.107,28.208 149.566,28.208 C152.086,28.208 156.172,27.804 159.094,26.898 L159.094,15.501 L155.01,15.501" id="Fill-15" sketch:type="MSShapeGroup"></path>
            <path d="M167.668,1.487 L171.951,1.487 L171.951,27.7 L167.668,27.7 L167.668,1.487 Z" id="Fill-16" sketch:type="MSShapeGroup"></path>
            <path d="M181.273,1.487 L198.674,1.487 L197.65,5.218 L185.564,5.218 L185.564,12.577 L194.596,12.577 L194.596,16.306 L185.564,16.306 L185.564,23.974 L198.723,23.974 L198.723,27.7 L181.273,27.7 L181.273,1.487" id="Fill-17" sketch:type="MSShapeGroup"></path>
            <path d="M151.467,14.575 L159.094,14.575 L159.094,18.639 L151.467,18.639 L151.467,14.575 Z" id="Fill-18" sketch:type="MSShapeGroup"></path>
            <path d="M410.585,28.196 C407.859,28.196 404.132,27.64 401.554,26.632 L402.16,23.251 C404.935,24.065 408.062,24.509 410.638,24.509 C415.023,24.509 415.882,23.759 415.882,20.985 C415.882,17.954 415.882,17.802 409.878,16.243 C402.212,14.228 401.857,12.911 401.857,7.962 C401.857,2.673 404.277,0.958 411.544,0.958 C413.765,0.958 417.144,1.308 419.566,1.915 L419.212,5.44 C416.935,4.993 413.66,4.649 411.593,4.649 C406.8,4.649 406.146,5.095 406.146,8.122 C406.146,11.044 406.199,11.196 412.046,12.812 C419.761,14.878 420.169,15.89 420.169,20.89 C420.169,25.773 418.705,28.196 410.585,28.196" id="Fill-19" sketch:type="MSShapeGroup"></path>
            <path d="M104.861,44.804 L100.148,58.46 L109.584,58.46 L104.861,44.804 L104.861,44.804 Z M117.166,67.747 L112.898,67.747 L110.686,61.921 L98.99,61.921 L96.834,67.747 L92.566,67.747 L102.252,41.636 L107.475,41.636 L117.166,67.747 L117.166,67.747 Z" id="Fill-20" sketch:type="MSShapeGroup"></path>
            <path d="M127.756,46.808 L127.756,67.747 L123.686,67.747 L123.686,41.636 L129.061,41.636 L141.305,62.577 L141.305,41.636 L145.377,41.636 L145.377,67.747 L140.002,67.747 L127.756,46.808" id="Fill-21" sketch:type="MSShapeGroup"></path>
            <path d="M158.674,64.026 L164.543,64.026 C168.51,64.026 169.818,62.675 169.818,59.511 L169.818,49.876 C169.818,46.71 168.51,45.351 164.543,45.351 L158.674,45.351 L158.674,64.026 L158.674,64.026 Z M164.846,41.636 C172.229,41.636 174.088,45.054 174.088,49.876 L174.088,59.511 C174.088,64.335 172.229,67.747 164.846,67.747 L154.406,67.747 L154.406,41.636 L164.846,41.636 L164.846,41.636 Z" id="Fill-22" sketch:type="MSShapeGroup"></path>
            <path d="M198.195,51.843 L198.195,67.763 L191.164,67.763 L191.164,41.642 L200.002,41.642 L208.695,57.614 L208.695,41.642 L215.727,41.642 L215.727,67.763 L206.889,67.763 L198.195,51.843" id="Fill-23" sketch:type="MSShapeGroup"></path>
            <path d="M230.542,58.064 L236.218,58.064 L233.355,47.671 L230.542,58.064 L230.542,58.064 Z M237.875,63.845 L228.884,63.845 L227.779,67.763 L220.496,67.763 L228.785,41.642 L237.925,41.642 L246.263,67.763 L238.978,67.763 L237.875,63.845 L237.875,63.845 Z" id="Fill-24" sketch:type="MSShapeGroup"></path>
            <path d="M273.109,60.03 L273.109,41.642 L280.542,41.642 L280.542,59.173 C280.542,60.931 281.65,61.833 284.464,61.833 C287.224,61.833 288.38,60.931 288.38,59.173 L288.38,41.642 L295.814,41.642 L295.814,60.03 C295.814,64.093 293.349,68.261 284.464,68.261 C275.57,68.261 273.109,64.093 273.109,60.03" id="Fill-25" sketch:type="MSShapeGroup"></path>
            <path d="M314.105,47.618 L309.283,47.618 L309.283,54.954 L314.105,54.954 C315.96,54.954 316.667,54.196 316.667,52.692 L316.667,49.776 C316.667,48.321 315.96,47.618 314.105,47.618 L314.105,47.618 Z M313.603,60.78 L309.283,60.78 L309.283,67.763 L301.845,67.763 L301.845,41.642 L314.302,41.642 C321.587,41.642 323.898,44.452 323.898,49.429 L323.898,52.938 C323.898,55.956 323.044,57.614 320.787,59.218 L326.511,67.763 L318.22,67.763 L313.603,60.78 L313.603,60.78 Z" id="Fill-26" sketch:type="MSShapeGroup"></path>
            <path d="M339.566,58.064 L345.242,58.064 L342.38,47.671 L339.566,58.064 L339.566,58.064 Z M346.898,63.845 L337.91,63.845 L336.804,67.763 L329.523,67.763 L337.812,41.642 L346.949,41.642 L355.287,67.763 L348.007,67.763 L346.898,63.845 L346.898,63.845 Z" id="Fill-27" sketch:type="MSShapeGroup"></path>
            <path d="M360.062,41.642 L367.492,41.642 L367.492,61.333 L378.445,61.333 L378.445,67.763 L360.062,67.763 L360.062,41.642" id="Fill-28" sketch:type="MSShapeGroup"></path>
            <path d="M261.216,67.825 L253.744,67.825 L253.744,48.034 L246.746,48.034 L246.746,41.577 L268.195,41.577 L268.195,48.034 L261.216,48.034 L261.216,67.825" id="Fill-29" sketch:type="MSShapeGroup"></path>
            <path d="M410.337,57.874 L401.953,57.874 L401.953,67.767 L394.517,67.767 L394.517,41.646 L401.953,41.646 L401.953,51.438 L410.337,51.438 L410.337,41.646 L417.777,41.646 L417.777,67.767 L410.337,67.767 L410.337,57.874" id="Fill-30" sketch:type="MSShapeGroup"></path>
            <path d="M425.556,41.646 L432.992,41.646 L432.992,67.767 L425.556,67.767 L425.556,41.646 Z" id="Fill-31" sketch:type="MSShapeGroup"></path>
            <path d="M439.521,66.46 L440.724,60.931 C442.988,61.591 446.3,62.19 449.062,62.19 C451.826,62.19 452.378,61.642 452.378,60.13 C452.378,58.474 452.076,58.071 447.355,57.321 C440.525,56.208 439.824,53.552 439.824,48.774 C439.824,43.05 443.287,41.138 450.169,41.138 C452.677,41.138 456.601,41.544 459.113,42.247 L458.257,48.122 C455.343,47.519 452.583,47.218 450.218,47.218 C447.808,47.218 447.255,47.577 447.255,49.028 C447.255,50.788 447.505,51.036 451.976,51.843 C459.312,53.151 459.81,54.854 459.81,59.776 C459.81,65.407 457.804,68.267 448.966,68.267 C445.949,68.267 442.332,67.665 439.521,66.46" id="Fill-32" sketch:type="MSShapeGroup"></path>
            <path d="M500.244,47.577 C497.429,47.577 496.173,48.675 496.173,50.538 L496.173,58.872 C496.173,60.731 497.429,61.837 500.244,61.837 C503.054,61.837 504.308,60.731 504.308,58.872 L504.308,50.538 C504.308,48.675 503.054,47.577 500.244,47.577 L500.244,47.577 Z M488.74,59.776 L488.74,49.628 C488.74,45.112 492.056,41.138 500.244,41.138 C508.427,41.138 511.748,45.112 511.748,49.628 L511.748,59.776 C511.748,64.304 508.427,68.267 500.244,68.267 C492.056,68.267 488.74,64.304 488.74,59.776 L488.74,59.776 Z" id="Fill-33" sketch:type="MSShapeGroup"></path>
            <path d="M529.634,47.624 L524.81,47.624 L524.81,54.956 L529.634,54.956 C531.496,54.956 532.193,54.202 532.193,52.698 L532.193,49.778 C532.193,48.325 531.496,47.624 529.634,47.624 L529.634,47.624 Z M529.126,60.784 L524.81,60.784 L524.81,67.767 L517.375,67.767 L517.375,41.646 L529.833,41.646 C537.115,41.646 539.427,44.456 539.427,49.431 L539.427,52.948 C539.427,55.958 538.574,57.618 536.312,59.226 L542.041,67.767 L533.753,67.767 L529.126,60.784 L529.126,60.784 Z" id="Fill-34" sketch:type="MSShapeGroup"></path>
            <path d="M559.015,67.767 L551.58,67.767 L551.58,60.333 L542.541,41.646 L550.078,41.646 L555.294,53.396 L560.521,41.646 L568.058,41.646 L559.015,60.333 L559.015,67.767" id="Fill-35" sketch:type="MSShapeGroup"></path>
            <path d="M477.652,67.829 L470.181,67.829 L470.181,48.036 L463.183,48.036 L463.183,41.579 L484.632,41.579 L484.632,48.036 L477.652,48.036 L477.652,67.829" id="Fill-36" sketch:type="MSShapeGroup"></path>
            <path d="M449.121,4.778 C444.414,4.778 442.644,6.396 442.644,9.54 L442.644,19.759 C442.644,22.896 444.414,24.517 449.121,24.517 C453.777,24.517 455.597,22.896 455.597,19.759 L455.597,9.54 C455.597,6.396 453.777,4.778 449.121,4.778 L449.121,4.778 Z M459.9,19.913 C459.9,24.415 457.267,28.313 449.121,28.313 C440.97,28.313 438.339,24.415 438.339,19.913 L438.339,9.386 C438.339,4.878 440.97,0.983 449.121,0.983 C457.267,0.983 459.9,4.878 459.9,9.386 L459.9,19.913 L459.9,19.913 Z" id="Fill-37" sketch:type="MSShapeGroup"></path>
            <path d="M468.146,27.806 L468.146,1.487 L485.814,1.487 L485.357,5.233 L472.449,5.233 L472.449,13.282 L481.966,13.282 L481.966,17.026 L472.449,17.026 L472.449,27.806 L468.146,27.806" id="Fill-38" sketch:type="MSShapeGroup"></path>
        </g>
    </g>
</svg>